HIERARCHY
ROOT Hips
{
	OFFSET -0.001795 -0.223333 0.028219
	CHANNELS 6 Xposition Yposition Zposition Zrotation Yrotation Xrotation 
	JOINT LeftUpLeg
	{
		OFFSET 0.069520 -0.091406 -0.006815
		CHANNELS 3 Zrotation Yrotation Xrotation
		JOINT LeftLeg
		{
			OFFSET 0.034277 -0.375199 -0.004496
			CHANNELS 3 Zrotation Yrotation Xrotation
			JOINT LeftFoot
			{
				OFFSET -0.013596 -0.397961 -0.043693
				CHANNELS 3 Zrotation Yrotation Xrotation
				JOINT LeftToe
				{
					OFFSET 0.026358 -0.055791 0.119288
					CHANNELS 3 Zrotation Yrotation Xrotation
					End Site
					{
						OFFSET 0.000000 0.000000 0.000000
					}
				}
			}
		}
	}
	JOINT RightUpLeg
	{
		OFFSET -0.067670 -0.090522 -0.004320
		CHANNELS 3 Zrotation Yrotation Xrotation
		JOINT RightLeg
		{
			OFFSET -0.038290 -0.382569 -0.008850
			CHANNELS 3 Zrotation Yrotation Xrotation
			JOINT RightFoot
			{
				OFFSET 0.015774 -0.398415 -0.042312
				CHANNELS 3 Zrotation Yrotation Xrotation
				JOINT RightToe
				{
					OFFSET -0.025372 -0.048144 0.123348
					CHANNELS 3 Zrotation Yrotation Xrotation
					End Site
					{
						OFFSET 0.000000 0.000000 0.000000
					}
				}
			}
		}
	}
	JOINT Spine
	{
		OFFSET -0.002533 0.108963 -0.026696
		CHANNELS 3 Zrotation Yrotation Xrotation
		JOINT Spine1
		{
			OFFSET 0.005487 0.135180 0.001092
			CHANNELS 3 Zrotation Yrotation Xrotation
			JOINT Spine2
			{
				OFFSET 0.001457 0.052922 0.025425
				CHANNELS 3 Zrotation Yrotation Xrotation
				JOINT Neck
				{
					OFFSET -0.002778 0.213870 -0.042857
					CHANNELS 3 Zrotation Yrotation Xrotation
					JOINT Head
					{
						OFFSET 0.005152 0.064970 0.051349
						CHANNELS 3 Zrotation Yrotation Xrotation
						End Site
						{
							OFFSET 0.000000 0.000000 0.000000
						}
					}
				}
				JOINT LeftShoulder
				{
					OFFSET 0.078845 0.121749 -0.034090
					CHANNELS 3 Zrotation Yrotation Xrotation
					JOINT LeftArm
					{
						OFFSET 0.090977 0.030469 -0.008868
						CHANNELS 3 Zrotation Yrotation Xrotation
						JOINT LeftForeArm
						{
							OFFSET 0.259612 -0.012772 -0.027456
							CHANNELS 3 Zrotation Yrotation Xrotation
							JOINT LeftHand
							{
								OFFSET 0.249234 0.008986 -0.001171
								CHANNELS 3 Zrotation Yrotation Xrotation
								End Site
								{
									OFFSET 0.000000 0.000000 0.000000
								}
							}
						}
					}
				}
				JOINT RightShoulder
				{
					OFFSET -0.081759 0.118833 -0.038615
					CHANNELS 3 Zrotation Yrotation Xrotation
					JOINT RightArm
					{
						OFFSET -0.096012 0.032551 -0.009143
						CHANNELS 3 Zrotation Yrotation Xrotation
						JOINT RightForeArm
						{
							OFFSET -0.253742 -0.013329 -0.021401
							CHANNELS 3 Zrotation Yrotation Xrotation
							JOINT RightHand
							{
								OFFSET -0.255298 0.007772 -0.005559
								CHANNELS 3 Zrotation Yrotation Xrotation
								End Site
								{
									OFFSET 0.000000 0.000000 0.000000
								}
							}
						}
					}
				}
			}
		}
	}
}
MOTION
Frames: 6
Frame Time: 0.050000
0.000000 0.941983 0.000000 0.075838 3.076834 7.532463 -3.288620 0.185292 0.536427 0.599692 0.325835 -10.478430 0.157550 2.951496 5.781454 0.000000 0.000000 0.000000 2.946518 0.133773 -1.915188 -0.077246 -0.245515 -6.168219 0.667751 -0.005763 3.587747 0.000000 0.000000 0.000000 6.175685 0.258513 -5.253638 -0.356006 0.174375 -0.418709 -3.462573 2.970975 7.261566 5.218594 -0.820369 -21.145069 0.000000 0.000000 0.000000 -19.102040 -8.552490 1.440839 -15.822693 8.054391 -2.314854 17.955857 -4.301135 -0.560834 0.000000 0.000000 0.000000 13.727267 3.963324 1.715555 17.118340 -8.507798 -2.613645 -14.129306 17.728026 -1.205894 0.000000 0.000000 0.000000 
-0.000863 0.941251 0.002313 -0.424236 3.041529 7.972534 -2.760831 0.166285 0.525317 0.671677 0.346050 -11.074827 0.675368 3.879094 5.712980 0.000000 0.000000 0.000000 3.356145 0.236388 -2.807585 0.213931 -0.268490 -6.343185 0.124221 -1.132630 3.208980 0.000000 0.000000 0.000000 7.869018 0.242923 -5.129408 -0.964508 0.419854 0.881731 -4.510358 4.020242 5.737815 5.978322 -0.793457 -23.141634 0.000000 0.000000 0.000000 -17.708621 -10.465757 2.166097 -16.197319 8.728459 -2.351890 17.286454 -1.912979 -0.279044 0.000000 0.000000 0.000000 15.285707 1.035064 0.443386 16.633465 -9.779045 -2.627850 -12.712146 19.684023 -1.126121 0.000000 0.000000 0.000000 
-0.002327 0.940173 0.004674 -0.442132 1.955616 8.125320 -2.231757 0.085629 0.012025 0.259480 0.305438 -9.484143 1.020025 4.172833 4.956284 0.000000 0.000000 0.000000 3.094546 0.304444 -3.378794 0.824624 -0.278034 -5.798052 0.485578 0.123813 2.252381 0.000000 0.000000 0.000000 8.883163 0.306872 -5.592421 -2.139240 1.000993 -0.604227 -4.090237 4.196660 7.763282 5.634449 -0.696743 -23.226444 0.000000 0.000000 0.000000 -16.498733 -10.645730 2.546410 -17.406768 10.203654 -2.808852 17.243007 -1.942531 -0.274460 0.000000 0.000000 0.000000 15.099926 2.594582 1.194648 18.032515 -10.803951 -3.029730 -13.544487 19.686318 -1.273331 0.000000 0.000000 0.000000 
-0.004816 0.939560 0.007166 -0.368488 2.139473 8.325592 -2.004035 0.089500 0.109280 -0.094612 0.304668 -9.278162 1.631869 5.215179 4.630326 0.000000 0.000000 0.000000 3.167774 0.301610 -3.365262 1.522248 -0.314558 -5.690795 0.841048 0.835866 2.583107 0.000000 0.000000 0.000000 9.086168 0.371691 -6.197453 -2.469253 1.147601 0.060487 -3.779582 4.072627 7.734824 5.102165 -0.315164 -24.120625 0.000000 0.000000 0.000000 -18.630892 -12.374632 3.354090 -17.296037 12.137046 -2.972151 19.092891 -0.840750 -0.160382 0.000000 0.000000 0.000000 17.080514 2.916641 1.367261 16.464866 -12.640998 -2.848477 -12.878715 20.241831 -1.252378 0.000000 0.000000 0.000000 
-0.008182 0.939301 0.009471 -0.229769 1.954345 8.061522 -1.649746 0.070777 0.079742 -0.293644 0.264515 -7.693583 1.670705 4.862635 3.451745 0.000000 0.000000 0.000000 2.960443 0.243002 -2.870820 1.884344 -0.338194 -5.843799 0.778399 0.811395 2.308017 0.000000 0.000000 0.000000 9.200184 0.387202 -6.211697 -2.046318 0.950059 0.200736 -4.413842 4.013490 7.786343 5.584806 -0.709508 -23.051209 0.000000 0.000000 0.000000 -19.400595 -12.820728 3.571852 -17.433009 12.890215 -3.079616 18.256730 -2.000051 -0.290019 0.000000 0.000000 0.000000 17.631035 3.574728 1.729635 17.696727 -13.481610 -3.198043 -12.330928 21.733423 -1.280992 0.000000 0.000000 0.000000 
-0.012146 0.938703 0.011401 -0.034069 1.502087 7.480450 -1.866207 0.002298 -0.595876 -0.009953 0.166126 -4.910200 2.265053 5.263633 1.307664 0.000000 0.000000 0.000000 2.297112 0.150961 -2.010258 2.546477 -0.366928 -5.562460 0.866591 1.262564 1.813498 0.000000 0.000000 0.000000 9.387161 0.292984 -5.211255 -2.341972 1.086681 0.987989 -4.180670 3.517069 7.472888 5.161829 -0.496490 -23.687438 0.000000 0.000000 0.000000 -20.506986 -12.769832 3.737713 -20.076644 13.069627 -3.700385 17.996855 -3.967312 -0.508084 0.000000 0.000000 0.000000 18.338199 4.231689 1.901625 19.699910 -12.608517 -3.537913 -11.312379 22.437694 -1.172263 0.000000 0.000000 0.000000 
